<svg xmlns="http://www.w3.org/2000/svg" width="116.967" height="49.182" viewBox="0 0 116.967 49.182">
<path id="パス_3" data-name="パス 3" d="M174.954,501.053c1.15,0,3.023.085,4.258.085,1.661,0,4.6-.171,5.621-.171.98,0,1.32.213,1.32.512,0,.384-.511.681-.937.809-2.3.553-2.64,1.192-2.683,1.7-.3,2.13-.3,6.431-.3,12.733,0,2.938.043,6.43.213,7.878.085,1.022,1.363,1.618,1.533,1.66a27.476,27.476,0,0,0,3.535.213,17.256,17.256,0,0,0,3.066-.213,2.558,2.558,0,0,0,1.32-.6,16.748,16.748,0,0,0,2.683-3.322,1.738,1.738,0,0,1,1.15-.852c.3,0,.34.468.17,1.15-.468,1.491-1.108,3.833-1.363,5.025a1.974,1.974,0,0,1-.98.724c-.639,0-4.429-.3-13.074-.3-2.043,0-4.982.256-6.3.256-.766,0-1.277-.171-1.277-.554,0-.3.383-.682,1.064-.809,2.343-.426,2.726-1.192,2.939-3.067.085-1.064.213-5.536.213-11.668,0-4.13,0-5.792-.043-7.2-.042-1.448-.255-2.13-2.214-2.6-.809-.212-1.193-.511-1.193-.809C173.676,501.223,174.187,501.053,174.954,501.053Z" transform="translate(-172.91 -500.84)" fill="#c7ac81"/>
<path id="パス_4" data-name="パス 4" d="M241.022,524.155a5.845,5.845,0,0,1,.937,3.663c0,1.66-.171,6.728-.171,7.2a1.576,1.576,0,0,0,1.576,1.7,8.833,8.833,0,0,0,1.491-.512c.128-.085.17-.042.255.043a1.673,1.673,0,0,1,.128.6c0,.809-2,2.9-4.386,2.9a3.1,3.1,0,0,1-3.194-2.044c-.043-.17-.3-.255-.383-.17a22.432,22.432,0,0,1-3.364,1.788,6.638,6.638,0,0,1-1.874.341c-1.576,0-3.279-1.916-3.279-4.3a3.943,3.943,0,0,1,.767-2.171,3.441,3.441,0,0,1,1.533-1.022c.937-.383,4.812-1.448,5.792-1.747.511-.17.766-.468.766-.638.043-.383.128-2.725.085-3.279a2.905,2.905,0,0,0-2.853-2.725,2.4,2.4,0,0,0-1.363.3c-.17.085-.256.511-.256,1.959a.539.539,0,0,1-.17.383,22.267,22.267,0,0,1-3.748,1.7.68.68,0,0,1-.554-.6c0-1.235.937-2.384,3.578-4.087a10.739,10.739,0,0,1,4.258-1.576A4.952,4.952,0,0,1,241.022,524.155Zm-4,12.434a1.3,1.3,0,0,0,.383-.809c.085-.6.171-2.385.171-3.789,0-.171-.171-.427-.3-.427a10.179,10.179,0,0,0-3.45,1.107c-.511.384-.766.6-.766,1.7A2.63,2.63,0,0,0,235.4,537.1,3.972,3.972,0,0,0,237.019,536.59Z" transform="translate(-202.571 -511.934)" fill="#c7ac81"/>
<path id="パス_5" data-name="パス 5" d="M294.279,512.661c-.128.043-.085.384.042.384,2.939,1.235,5.11,3.363,5.11,7.026a7.309,7.309,0,0,1-3.619,6.175c-2.045,1.447-5.919,1.873-7.623,1.873-1.192,0-5.877-.085-7.793-.128-1.533-.043-2.555.042-3.236.042-.767,0-1.363-.3-1.363-.681s.724-.638,1.193-.723c2.6-.512,2.768-1.15,2.938-2.6.085-.894.341-5.153.341-13.585a47.816,47.816,0,0,0-.256-6.387c-.213-.937-.468-1.278-2.682-1.7-.553-.085-1.107-.341-1.107-.809,0-.34.638-.553,1.191-.553h2.811c1.362,0,6.557-.3,8.3-.3a12.651,12.651,0,0,1,6.132,1.278,5.877,5.877,0,0,1,2.981,5.238C297.643,510.447,295.429,511.853,294.279,512.661Zm-7.069-10.433a8.318,8.318,0,0,0-1.491.256,1.421,1.421,0,0,0-.383.68c-.086.682-.171,1.916-.171,9.071,0,.212.213.553.468.553,1.533,0,3.961-.256,4.982-1.022a4.832,4.832,0,0,0,2.045-4.045A5.15,5.15,0,0,0,287.21,502.228Zm3.45,12.69a7.392,7.392,0,0,0-3.663-.81,3.2,3.2,0,0,0-1.448.3c-.128.128-.34.341-.34,2-.044,1.108.085,6.217.17,7.5a3.083,3.083,0,0,0,.553,1.362,4.563,4.563,0,0,0,2.683,1.448c2.725,0,5.2-2.726,5.2-6.26A6.152,6.152,0,0,0,290.66,514.919Z" transform="translate(-227.554 -500.695)" fill="#c7ac81"/>
<path id="パス_6" data-name="パス 6" d="M341.819,524.155a5.841,5.841,0,0,1,.938,3.663c0,1.66-.171,6.728-.171,7.2a1.577,1.577,0,0,0,1.576,1.7,8.8,8.8,0,0,0,1.49-.512c.128-.085.171-.042.256.043a1.661,1.661,0,0,1,.128.6c0,.809-2,2.9-4.386,2.9a3.1,3.1,0,0,1-3.194-2.044c-.043-.17-.3-.255-.384-.17a22.429,22.429,0,0,1-3.363,1.788,6.644,6.644,0,0,1-1.875.341c-1.575,0-3.279-1.916-3.279-4.3a3.943,3.943,0,0,1,.767-2.171,3.438,3.438,0,0,1,1.533-1.022c.937-.383,4.812-1.448,5.791-1.747.512-.17.767-.468.767-.638.043-.383.128-2.725.085-3.279a2.9,2.9,0,0,0-2.853-2.725,2.4,2.4,0,0,0-1.363.3c-.17.085-.255.511-.255,1.959a.539.539,0,0,1-.17.383,22.3,22.3,0,0,1-3.748,1.7.679.679,0,0,1-.554-.6c0-1.235.937-2.384,3.577-4.087a10.742,10.742,0,0,1,4.259-1.576A4.95,4.95,0,0,1,341.819,524.155Zm-4,12.434a1.3,1.3,0,0,0,.383-.809c.085-.6.171-2.385.171-3.789,0-.171-.171-.427-.3-.427a10.176,10.176,0,0,0-3.449,1.107c-.511.384-.766.6-.766,1.7A2.63,2.63,0,0,0,336.2,537.1,3.977,3.977,0,0,0,337.816,536.59Z" transform="translate(-256.106 -511.934)" fill="#c7ac81"/>
<path id="パス_7" data-name="パス 7" d="M368.377,513.223c1.746-.341,4.429-1.362,5.109-1.533.213,0,.427.341.427.468-.085,1.448-.213,7.155-.213,9.624,0,1.32.043,2.81.085,4.3.043,1.278.554,1.448,1.661,1.789.638.212.937.468.937.809s-.6.553-1.192.553c-.3,0-2.6-.128-3.534-.128-1.362,0-3.407.17-4.13.17-.681,0-1.193-.255-1.193-.553s.3-.511,1.107-.767c1.023-.3,1.491-.809,1.576-1.235a51.927,51.927,0,0,0,.256-6.643c0-.894,0-3.322-.086-3.833-.042-.341-.553-.767-1.447-1.533-.256-.256-.511-.468-.511-.682C367.228,513.692,367.7,513.352,368.377,513.223ZM374,505.515a2.859,2.859,0,0,1-2.555,2.6,2.918,2.918,0,0,1-1.7-.724,2.57,2.57,0,0,1-.809-1.874,3.08,3.08,0,0,1,.682-1.873,3.241,3.241,0,0,1,2.129-.767C373.232,502.876,374,504.536,374,505.515Z" transform="translate(-275.639 -501.853)" fill="#c7ac81"/>
<path id="パス_8" data-name="パス 8" d="M403.672,523.645a5.174,5.174,0,0,1,1.618,3.748c0,.3-.426,1.021-.938,1.021h-9.284a.481.481,0,0,0-.468.3,5.449,5.449,0,0,0-.17,1.533,8.093,8.093,0,0,0,1.32,3.96,5.981,5.981,0,0,0,4.727,2.13c1.789,0,3.023-.426,3.833-1.491.171-.256.383-.511.554-.511s.383.3.383.553a2.375,2.375,0,0,1-.341,1.065,7.561,7.561,0,0,1-6.814,3.7c-4.9,0-7.878-3.7-7.878-8.56a9.219,9.219,0,0,1,5.408-8.431,8.373,8.373,0,0,1,3.492-.81A6.629,6.629,0,0,1,403.672,523.645Zm-8.815,3.023a.358.358,0,0,0,.3.426c1.107.043,2.427,0,4.556,0a1.413,1.413,0,0,0,1.491-1.448,2.775,2.775,0,0,0-2.385-2.6C397.029,523.049,395.368,524.752,394.857,526.668Z" transform="translate(-288.323 -511.934)" fill="#c7ac81"/>
<path id="パス_9" data-name="パス 9" d="M230.981,463.024a6.979,6.979,0,0,1-2.3.41,3.514,3.514,0,0,1-3.841-3.775,3.753,3.753,0,0,1,4.052-3.863,4.633,4.633,0,0,1,1.865.344l-.233.788a3.876,3.876,0,0,0-1.654-.322,2.8,2.8,0,0,0-3.008,3.008,2.743,2.743,0,0,0,2.886,3.02,3.13,3.13,0,0,0,1.288-.2V460.2h-1.521v-.777h2.464Z" transform="translate(-224.842 -455.474)" fill="#c7ac81"/>
<path id="パス_10" data-name="パス 10" d="M240.91,462c0-.633-.011-1.177-.045-1.676h.855l.033,1.054h.045a1.611,1.611,0,0,1,1.487-1.176,1.05,1.05,0,0,1,.278.033v.921a1.454,1.454,0,0,0-.333-.034,1.372,1.372,0,0,0-1.311,1.255,2.778,2.778,0,0,0-.044.456V465.7h-.966Z" transform="translate(-233.352 -457.813)" fill="#c7ac81"/>
<path id="パス_11" data-name="パス 11" d="M251.908,464.409A7.517,7.517,0,0,0,252,465.7h-.888l-.078-.677H251a2,2,0,0,1-1.643.8,1.531,1.531,0,0,1-1.643-1.543c0-1.3,1.154-2.01,3.23-2v-.112a1.108,1.108,0,0,0-1.221-1.243,2.677,2.677,0,0,0-1.4.4l-.222-.644a3.338,3.338,0,0,1,1.765-.477c1.643,0,2.042,1.121,2.042,2.2Zm-.944-1.455c-1.065-.022-2.276.167-2.276,1.211a.865.865,0,0,0,.921.933,1.337,1.337,0,0,0,1.3-.9,1.034,1.034,0,0,0,.055-.311Z" transform="translate(-236.989 -457.813)" fill="#c7ac81"/>
<path id="パス_12" data-name="パス 12" d="M259.293,461.776c0-.555-.011-1.01-.045-1.454h.866l.055.888h.022a1.977,1.977,0,0,1,1.776-1.01c.744,0,1.9.444,1.9,2.286V465.7h-.977v-3.1c0-.866-.322-1.587-1.244-1.587a1.387,1.387,0,0,0-1.31,1,1.406,1.406,0,0,0-.067.455V465.7h-.977Z" transform="translate(-243.115 -457.813)" fill="#c7ac81"/>
<path id="パス_13" data-name="パス 13" d="M276.1,455.109v6.5c0,.477.011,1.021.044,1.387h-.877l-.045-.933H275.2a1.986,1.986,0,0,1-1.831,1.055,2.45,2.45,0,0,1-2.3-2.731c-.011-1.788,1.1-2.886,2.409-2.886a1.8,1.8,0,0,1,1.621.822h.022v-3.209Zm-.978,4.7a1.729,1.729,0,0,0-.044-.412,1.437,1.437,0,0,0-1.41-1.132c-1.01,0-1.61.888-1.61,2.076,0,1.087.533,1.987,1.588,1.987a1.47,1.47,0,0,0,1.432-1.166,1.7,1.7,0,0,0,.044-.422Z" transform="translate(-249.394 -455.109)" fill="#c7ac81"/>
<path id="パス_14" data-name="パス 14" d="M285.226,463.187a1.722,1.722,0,0,0,1.843,1.866,3.533,3.533,0,0,0,1.487-.279l.167.7a4.314,4.314,0,0,1-1.788.345,2.5,2.5,0,0,1-2.642-2.72,2.609,2.609,0,0,1,2.52-2.9,2.277,2.277,0,0,1,2.221,2.531,3.717,3.717,0,0,1-.034.455Zm2.864-.7a1.392,1.392,0,0,0-1.355-1.588,1.62,1.62,0,0,0-1.5,1.588Z" transform="translate(-256.417 -457.813)" fill="#c7ac81"/>
<path id="パス_15" data-name="パス 15" d="M308.163,460.159c-.056-1.044-.122-2.3-.111-3.231h-.034c-.255.877-.565,1.821-.943,2.842l-1.321,3.63h-.733l-1.21-3.564c-.355-1.054-.655-2.019-.866-2.908h-.022c-.022.932-.078,2.187-.144,3.308l-.2,3.209h-.921l.522-7.483h1.232l1.277,3.619c.311.922.566,1.743.755,2.52h.033c.189-.755.455-1.576.789-2.52l1.332-3.619h1.232l.467,7.483h-.944Z" transform="translate(-265.639 -455.562)" fill="#c7ac81"/>
<path id="パス_16" data-name="パス 16" d="M324.266,464.409a7.519,7.519,0,0,0,.089,1.287h-.888l-.078-.677h-.033a2,2,0,0,1-1.643.8,1.531,1.531,0,0,1-1.643-1.543c0-1.3,1.154-2.01,3.23-2v-.112a1.108,1.108,0,0,0-1.221-1.243,2.679,2.679,0,0,0-1.4.4l-.222-.644a3.341,3.341,0,0,1,1.765-.477c1.643,0,2.043,1.121,2.043,2.2Zm-.944-1.455c-1.065-.022-2.276.167-2.276,1.211a.865.865,0,0,0,.922.933,1.337,1.337,0,0,0,1.3-.9,1.047,1.047,0,0,0,.055-.311Z" transform="translate(-275.419 -457.813)" fill="#c7ac81"/>
<path id="パス_17" data-name="パス 17" d="M333.124,456.549a.6.6,0,0,1-1.209,0,.6.6,0,0,1,.61-.611A.58.58,0,0,1,333.124,456.549Zm-1.087,6.882v-5.373h.977v5.373Z" transform="translate(-281.71 -455.549)" fill="#c7ac81"/>
<path id="パス_18" data-name="パス 18" d="M337.441,464.7a2.547,2.547,0,0,0,1.288.389c.71,0,1.043-.354,1.043-.8,0-.467-.278-.722-1-.988-.966-.345-1.421-.877-1.421-1.522a1.657,1.657,0,0,1,1.854-1.575,2.682,2.682,0,0,1,1.32.332l-.244.711a2.091,2.091,0,0,0-1.1-.31c-.577,0-.9.333-.9.732,0,.444.322.644,1.022.91.933.355,1.41.822,1.41,1.621,0,.944-.733,1.621-2.009,1.621a3.069,3.069,0,0,1-1.51-.377Z" transform="translate(-284.515 -457.813)" fill="#c7ac81"/>
<path id="パス_19" data-name="パス 19" d="M351.685,462.965a2.626,2.626,0,0,1-2.675,2.853,2.554,2.554,0,0,1-2.575-2.765A2.624,2.624,0,0,1,349.1,460.2,2.544,2.544,0,0,1,351.685,462.965Zm-4.263.055c0,1.177.677,2.065,1.631,2.065.933,0,1.633-.877,1.633-2.086,0-.911-.456-2.065-1.61-2.065S347.422,462,347.422,463.02Z" transform="translate(-289.421 -457.813)" fill="#c7ac81"/>
<path id="パス_20" data-name="パス 20" d="M360.081,461.776c0-.555-.012-1.01-.045-1.454h.866l.055.888h.022a1.975,1.975,0,0,1,1.775-1.01c.744,0,1.9.444,1.9,2.286V465.7h-.976v-3.1c0-.866-.322-1.587-1.244-1.587a1.387,1.387,0,0,0-1.31,1,1.406,1.406,0,0,0-.066.455V465.7h-.977Z" transform="translate(-296.645 -457.813)" fill="#c7ac81"/>
</svg>
